/* XPM */
static char * didius_main_xpm[] = {
"32 32 313 2",
"  	c None",
". 	c #939090",
"+ 	c #9B9998",
"@ 	c #979594",
"# 	c #9D9B9A",
"$ 	c #939190",
"% 	c #878583",
"& 	c #C6C6C6",
"* 	c #F1F1F1",
"= 	c #D4D4D4",
"- 	c #B3B3B3",
"; 	c #AFAFAF",
"> 	c #AEAEAE",
", 	c #ADADAD",
"' 	c #B0B0B0",
") 	c #CDCDCD",
"! 	c #E3E3E3",
"~ 	c #B9B9B9",
"{ 	c #A3A1A0",
"] 	c #989595",
"^ 	c #929090",
"/ 	c #929190",
"( 	c #9B9898",
"_ 	c #93908F",
": 	c #8A8887",
"< 	c #757271",
"[ 	c #777473",
"} 	c #807E7D",
"| 	c #787675",
"1 	c #787574",
"2 	c #716F6E",
"3 	c #575554",
"4 	c #828181",
"5 	c #E9E9E9",
"6 	c #F0F0F0",
"7 	c #E6E6E6",
"8 	c #D1D1D1",
"9 	c #9F9C9C",
"0 	c #B4B5B5",
"a 	c #D2D3D3",
"b 	c #D6D6D6",
"c 	c #838283",
"d 	c #716E6D",
"e 	c #7B7877",
"f 	c #706D6C",
"g 	c #6C6A69",
"h 	c #6B6867",
"i 	c #898786",
"j 	c #848281",
"k 	c #737170",
"l 	c #706E6D",
"m 	c #827F7E",
"n 	c #817F7E",
"o 	c #6D6A69",
"p 	c #656261",
"q 	c #757373",
"r 	c #D7D7D7",
"s 	c #F2F1F1",
"t 	c #F2F3F3",
"u 	c #D5BEBE",
"v 	c #BA4141",
"w 	c #992020",
"x 	c #DFCFCF",
"y 	c #ECEDED",
"z 	c #E5E5E5",
"A 	c #959392",
"B 	c #6D6B6A",
"C 	c #6F6D6C",
"D 	c #767372",
"E 	c #6E6B6A",
"F 	c #73706F",
"G 	c #858281",
"H 	c #848080",
"I 	c #797675",
"J 	c #676463",
"K 	c #767473",
"L 	c #7D7B7A",
"M 	c #7C7978",
"N 	c #6E6C6B",
"O 	c #B7B7B7",
"P 	c #F4F5F5",
"Q 	c #C4BABA",
"R 	c #D02727",
"S 	c #E15555",
"T 	c #A51919",
"U 	c #9E2020",
"V 	c #D4CFCF",
"W 	c #E9EAEA",
"X 	c #B1B1B1",
"Y 	c #878584",
"Z 	c #7E7B7A",
"` 	c #747271",
" .	c #6F6C6B",
"..	c #646261",
"+.	c #636160",
"@.	c #726F6E",
"#.	c #83807F",
"$.	c #7A7776",
"%.	c #6B6868",
"&.	c #838080",
"*.	c #7C7A79",
"=.	c #757272",
"-.	c #969594",
";.	c #DDDDDD",
">.	c #B5BCBC",
",.	c #BE5E5E",
"'.	c #E95D5D",
").	c #AC2323",
"!.	c #A25555",
"~.	c #B9BEBE",
"{.	c #E0E0E0",
"].	c #9E9D9D",
"^.	c #82807F",
"/.	c #72706F",
"(.	c #5F5D5C",
"_.	c #777574",
":.	c #817E7D",
"<.	c #7F7D7C",
"[.	c #7C7B79",
"}.	c #878484",
"|.	c #807D7C",
"1.	c #7D7A79",
"2.	c #747170",
"3.	c #BABABA",
"4.	c #EEEEEE",
"5.	c #C9BABA",
"6.	c #BD5A5A",
"7.	c #8A2D2D",
"8.	c #B9ACAC",
"9.	c #C0C0BF",
"0.	c #979595",
"a.	c #848180",
"b.	c #7B7978",
"c.	c #767271",
"d.	c #726F6F",
"e.	c #837F7F",
"f.	c #868382",
"g.	c #868483",
"h.	c #706E6C",
"i.	c #CDA6A6",
"j.	c #E66161",
"k.	c #8C2727",
"l.	c #B18A8A",
"m.	c #EBEDED",
"n.	c #BBBBBA",
"o.	c #7D7978",
"p.	c #696665",
"q.	c #868383",
"r.	c #888585",
"s.	c #817E7E",
"t.	c #838281",
"u.	c #D9DFDF",
"v.	c #D26B6B",
"w.	c #EB6262",
"x.	c #9C2C2C",
"y.	c #A04646",
"z.	c #D7DCDC",
"A.	c #A7A6A5",
"B.	c #7B7776",
"C.	c #5A5857",
"D.	c #666363",
"E.	c #757473",
"F.	c #838180",
"G.	c #868484",
"H.	c #7F7C7B",
"I.	c #777575",
"J.	c #B2B7B7",
"K.	c #E43838",
"L.	c #E55E5E",
"M.	c #A52C2C",
"N.	c #A41E1E",
"O.	c #B2B0B0",
"P.	c #908E8D",
"Q.	c #7A7877",
"R.	c #716D6D",
"S.	c #5F5C5C",
"T.	c #797776",
"U.	c #757372",
"V.	c #666463",
"W.	c #807D7D",
"X.	c #7A7978",
"Y.	c #976767",
"Z.	c #EB3C3C",
"`.	c #E05A5A",
" +	c #AA2929",
".+	c #906463",
"++	c #6A6867",
"@+	c #636060",
"#+	c #6C6968",
"$+	c #737070",
"%+	c #7F7D7D",
"&+	c #878483",
"*+	c #7B7A79",
"=+	c #7F5554",
"-+	c #E44343",
";+	c #DB5656",
">+	c #AC2626",
",+	c #A42020",
"'+	c #8E6F6F",
")+	c #858382",
"!+	c #797676",
"~+	c #676665",
"{+	c #716E6E",
"]+	c #6A6766",
"^+	c #686766",
"/+	c #7C7979",
"(+	c #707372",
"_+	c #C74646",
":+	c #D75050",
"<+	c #A91F1F",
"[+	c #952525",
"}+	c #919392",
"|+	c #656362",
"1+	c #605D5D",
"2+	c #7B7B7A",
"3+	c #995C5C",
"4+	c #CF4848",
"5+	c #A51B1B",
"6+	c #935959",
"7+	c #868685",
"8+	c #5D5B5B",
"9+	c #6F6C6C",
"0+	c #686564",
"a+	c #605E5D",
"b+	c #83817F",
"c+	c #7D7A7A",
"d+	c #816E6D",
"e+	c #C04040",
"f+	c #A21E1F",
"g+	c #8F7B7A",
"h+	c #7E7B7B",
"i+	c #5D5B5A",
"j+	c #666362",
"k+	c #5D5A5A",
"l+	c #7C7575",
"m+	c #A83939",
"n+	c #9A2B2A",
"o+	c #898382",
"p+	c #575453",
"q+	c #6C6969",
"r+	c #73706E",
"s+	c #636162",
"t+	c #787776",
"u+	c #8A3F3E",
"v+	c #8F4342",
"w+	c #828180",
"x+	c #767373",
"y+	c #5E5C5C",
"z+	c #6A6767",
"A+	c #646160",
"B+	c #696666",
"C+	c #6B6968",
"D+	c #6B6969",
"E+	c #775C5C",
"F+	c #876C6B",
"G+	c #6D6969",
"H+	c #706D6D",
"I+	c #696766",
"J+	c #625F5E",
"K+	c #686563",
"L+	c #63605F",
"M+	c #686665",
"N+	c #626161",
"O+	c #706C6C",
"P+	c #605D5C",
"Q+	c #615E5E",
"R+	c #5D5A59",
"S+	c #615E5D",
"T+	c #686463",
"U+	c #5B5959",
"V+	c #5E5B5A",
"W+	c #5E5C5B",
"X+	c #615F5E",
"Y+	c #676564",
"Z+	c #605C5B",
"`+	c #656262",
" @	c #565454",
".@	c #646260",
"+@	c #5C5958",
"@@	c #5F5D5D",
"#@	c #62605F",
"$@	c #666261",
"%@	c #5F5C5B",
"&@	c #696564",
"*@	c #565352",
"=@	c #4C4C4C",
"-@	c #4E4F4F",
";@	c #5A5756",
">@	c #646060",
",@	c #565353",
"'@	c #595756",
")@	c #575454",
"!@	c #585554",
"~@	c #5D5958",
"{@	c #53504F",
"]@	c #5E5B59",
"^@	c #5B5857",
"/@	c #504D4D",
"(@	c #575555",
"_@	c #595655",
":@	c #555251",
"<@	c #4D4A49",
"[@	c #454545",
"}@	c #474848",
"|@	c #5A5655",
"1@	c #545150",
"2@	c #494746",
"3@	c #4E4C4B",
"4@	c #4C4A49",
"5@	c #252323",
"6@	c #62605E",
"7@	c #252423",
"8@	c #000000",
"                                                                ",
"                                                                ",
"      . + @ # $ . % & * = - ; > , > ' ) ! ~ { ] @ ^ / ( _       ",
"    : < [ } | 1 2 3 4 5 6 7 8 9 0 a ! ! b c d e f g h < < i     ",
"    j k l < m n o p q r s t u v w x y z & A B C D E p B F G     ",
"    H F I J | K L M N O P Q R S T U V W X Y Z `  ...+.[ @.#.    ",
"    n @.$.e %.&.G *.=.-.;.>.,.'.).!.~.{.].^.^.Z /.(.1 _.d :.    ",
"    <.@.I [.}.Y &.|.1.2.3.4.5.6.7.8.4.9.0.a.L b.c.B N [ f <.    ",
"    Z 2 d.e.G j f.g.*.h.> 4.i.j.k.l.m.n.i ^.o._.| /.p p. .1.    ",
"    M l E ` q.&.r.f.s.M t.u.v.w.x.y.z.A.|.L <.B./.l C.h E e     ",
"    $. .[ D.E.r.F.&.G.H.I.J.K.L.M.N.O.P.m 1.Q.I R.S...2.o T.    ",
"    [ o U.| V.W.G f.#.L X.Y.Z.`. +)..+G.|.Z D 2.++@+U.@.h [     ",
"    < #+` [ $+(.%+&+#.^.*+=+-+;+>+,+'+)+e 1 !+~+(.2 2.{+]+2.    ",
"    F h F < /.F ^+} q.}./+(+_+:+<+[+}+L 1._. .|+/.l @.f p.@.    ",
"    d ]+d 2.d d D 1+j m a.2+3+4+5+6+7+e *.2 8+U.d 9+d  .0+l     ",
"     .0+f F C d D 2.a+b+#.c+d+e+f+g+} h+l i+2.U.f E C E j+E     ",
"    #+J E d E  .2.2.#+k+f.H.l+m+n+o+e [ p+o 2.F E q+ .#+p #+    ",
"    ]+|+B 9+#+o r+r+o ]+s+q.t+u+v+w+x+y+z+E @.@.g ++o h A+B+    ",
"    0+A+#+N h C+{+{+D+q+C+++} E+F+Q.y+%.G+#+H+f h I+#+p.J+K+    ",
"    p L+h g M+]+C f ]+]+f V.N+/.}.C.D.9+h h H+O+I+p P+Q+R+L+    ",
"    J+S+p.h T+J E E 0+0+E  .U+K 2 i+E B p.J V+W+X+p #+Y+Z+J+    ",
"    S+P+0+B+`+J #+#+J J #+#+S.`  @j+C+C+J J+d N J A+J p W+S+    ",
"    Z+V+|+0+.@A+h h j+j+h #++@@@a+L+]+]+p J+E p.A+#@$@L++@V+    ",
"    %@R+A+j+X+#@&@0+L+L+p.p.*@Y+=@-@]+p.A+A+M+0+J+P+A+J++@V+    ",
"    R+;@J+>@(.P+J J S+S+J 0+,@E '@)@J J X+S+j+j+P+V+S+P+;@+@    ",
"    +@!@(.a+~@R+A+A+V+V+A+p {@%.]@V+L+L+V+V+L+#@R+^@%@V+!@^@    ",
"    ;@p+i+V+'@;@S+S+^@^@S+S+/@M+'@(@P+P+^@^@P+P+;@!@R+R+*@^@    ",
"    _@:@+@+@*@*@i+V+p+p+V+V+<@D.[@}@V+R+!@!@R++@*@*@^@^@:@|@    ",
"    *@1@;@;@1@1@;@;@1@1@;@^@2@#@3@4@;@'@1@1@;@;@1@1@_@_@1@*@    ",
"    5@p+A+j+#@A+C+B p.h F =.M+} @.2 ` /.%.p.g ++A+6@|++.3 7@    ",
"        8@8@8@8@8@8@8@8@8@8@8@8@8@8@8@8@8@8@8@8@8@8@8@8@        ",
"                                                                "};
